# AST/ASF file generated using VICON BodyLanguage
# -----------------------------------------------
:version 1.10
:name VICON
:units
  mass 1.0
  length 0.45
  angle deg
:documentation
   .ast/.asf automatically generated from VICON data using
   VICON BodyBuilder and BodyLanguage model FoxedUp or BRILLIANT.MOD
:root
   order TX TY TZ RX RY RZ
   axis XYZ
   position 0 0 0  
   orientation 0 0 0 
:bonedata
  begin
     id 1 
     name lhipjoint
     direction 0.561001 -0.76473 0.316963 
     length 2.4722 
     axis 0 0 0  XYZ
  end
  begin
     id 2 
     name lfemur
     direction 0.34202 -0.939693 0  
     length 7.59403  
     axis 0 0 20  XYZ
    dof rx ry rz
    limits (-160.0 20.0)
           (-70.0 70.0)
           (-60.0 70.0)
  end
  begin
     id 3 
     name ltibia
     direction 0.34202 -0.939693 0   
     length 7.89655   
     axis 0 0 20   XYZ
    dof rx
    limits (-10.0 170.0)
  end
  begin
     id 4 
     name lfoot
     direction 0.061296 -0.168409 0.98381   
     length 2.73287   
     axis -90 7.62852e-016 20   XYZ
    dof rx rz
    limits (-45.0 90.0)
           (-70.0 20.0)
  end
  begin
     id 5 
     name ltoes
     direction 1.53547e-011 -4.21984e-011 1   
     length 1.37057   
     axis -90 7.62852e-016 20   XYZ
    dof rx
    limits (-90.0 20.0)
  end
  begin
     id 6 
     name rhipjoint
     direction -0.559611 -0.765599 0.317323   
     length 2.46939  
     axis 0 0 0  XYZ 
  end
  begin
     id 7 
     name rfemur
     direction -0.34202 -0.939693 0   
     length 7.53712   
     axis 0 0 -20   XYZ
    dof rx ry rz
    limits (-160.0 20.0)
           (-70.0 70.0)
           (-70.0 60.0)
  end
  begin
     id 8 
     name rtibia
     direction -0.34202 -0.939693 0   
     length 8.12549   
     axis 0 0 -20   XYZ
    dof rx
    limits (-10.0 170.0)
 end
 begin
     id 9 
     name rfoot
     direction -0.066984 -0.184037 0.980634   
     length 2.67541  
     axis -90 -7.62852e-016 -20   XYZ
    dof rx rz
    limits (-45.0 90.0)
           (-20.0 70.0)
  end
  begin
     id 10 
     name rtoes
     direction -1.53549e-011 -4.21786e-011 1   
     length 1.34085   
     axis -90 -7.62852e-016 -20   XYZ
    dof rx
    limits (-90.0 20.0)
  end
  begin
     id 11 
     name lowerback
     direction -0.0522728 0.992594 -0.109658   
     length 2.05633   
     axis 0 0 0   XYZ
    dof rx ry rz
    limits (-20.0 45.0)
           (-30.0 30.0)
           (-30.0 30.0)
  end
  begin
     id 12 
     name upperback
     direction 0.00589338 0.999977 0.00335704   
     length 2.05845   
     axis 0 0 0   XYZ
    dof rx ry rz
    limits (-20.0 45.0)
           (-30.0 30.0)
           (-30.0 30.0)
  end
  begin
     id 13 
     name thorax
     direction 0.0292928 0.998059 0.0549487   
     length 2.09281   
     axis 0 0 0   XYZ
    dof rx ry rz
    limits (-20.0 45.0)
           (-30.0 30.0)
           (-30.0 30.0)
  end
  begin
     id 14 
     name lowerneck
     direction 0.0356368 0.980775 0.191858   
     length 1.84767   
     axis 0 0 0   XYZ
    dof rx ry rz
    limits (-20.0 45.0)
           (-30.0 30.0)
           (-30.0 30.0)
  end
  begin
     id 15 
     name upperneck
     direction -0.0227605 0.98931 -0.14404   
     length 1.89582   
     axis 0 0 0   XYZ
    dof rx ry rz
    limits (-20.0 45.0)
           (-30.0 30.0)
           (-30.0 30.0)
  end
  begin
     id 16
     name head
     direction -0.00932985 0.997511 -0.0698904  
     length 1.90213  
     axis 0 0 0   XYZ
    dof rx ry rz
    limits (-20.0 45.0)
           (-30.0 30.0)
           (-30.0 30.0)
  end
  begin
     id 17 
     name lclavicle
     direction 0.873442 0.479511 0.0846686  
     length 3.41193  
     axis 0 0 0   XYZ
    dof ry rz
    limits (-20.0 10.0)
           (0.0 20.0)
  end
  begin
     id 18 
     name lhumerus
     direction 1 -4.4897e-011 -5.62117e-018   
     length 5.59864   
     axis 180 -30 -90   XYZ
    dof rx ry rz
    limits (-60.0 90.0)
           (-90.0 90.0)
           (-90.0 90.0)
  end
  begin
     id 19
     name lradius
     direction 1 -4.48966e-011 -6.26295e-027   
     length 3.59542   
     axis 180 -30 -90   XYZ
    dof rx
    limits (-10.0 170.0)
  end
  begin
     id 20
     name lwrist
     direction 1 -4.48947e-011 -1.74096e-026   
     length 1.79771   
     axis 1.04567e-014 90 90   XYZ
    dof ry
    limits (-180.0 0.0)
 end
  begin
     id 21 
     name lhand
     direction 1 -4.49085e-011 -3.48469e-026   
     length 0.572014   
     axis 2.22196e-014 90 90   XYZ
    dof rx rz
    limits (-90.0 90.0)
           (-45.0 45.0)
  end
  begin
     id 22 
     name lfingers
     direction 1 -4.48884e-011 -6.96135e-026   
     length 0.461173   
     axis 4.44383e-014 90 90   XYZ
    dof rx
    limits (0.0 90.0)
  end
  begin
     id 23
     name lthumb
     direction 0.707107 -6.34976e-011 0.707107   
     length 0.662154   
     axis -90 45 -5.4397e-014   XYZ
    dof rx rz
    limits (-45.0 45.0)
           (-45.0 45.0)
  end
  begin
     id 24 
     name rclavicle
     direction -0.890242 0.443271 0.104786   
     length 3.46753  
     axis 0 0 0   XYZ 
    dof ry rz
    limits (-10.0 20.0)
           (-20.0 0.0)
  end
  begin
     id 25 
     name rhumerus
     direction -1 -4.48963e-011 -5.41723e-018  
     length 5.8094   
     axis 180 30 90   XYZ
    dof rx ry rz
    limits (-90.0 60.0)
           (-90.0 90.0)
           (-90.0 90.0)
  end
  begin
     id 26 
     name rradius
     direction -1 -4.48958e-011 -6.51059e-027   
     length 3.66953   
     axis 180 30 90   XYZ
    dof rx
    limits (-10.0 170.0)
  end
  begin
     id 27 
     name rwrist
     direction -1 -4.48975e-011 -1.74124e-026   
     length 1.83476   
     axis 1.04567e-014 -90 -90   XYZ
    dof ry
    limits (-180.0 0.0)
  end
  begin
     id 28
     name rhand
     direction -1 -4.49013e-011 -3.48326e-026   
     length 0.57843   
     axis 2.22196e-014 -90 -90   XYZ
    dof rx rz
    limits (-90.0 90.0)
           (-45.0 45.0)
  end
  begin
     id 29
     name rfingers
     direction -1 -4.49023e-011 -6.9669e-026   
     length 0.466345   
     axis 4.44383e-014 -90 -90   XYZ
    dof rx
    limits (0.0 90.0)
  end
  begin
     id 30
     name rthumb
     direction -0.707107 -6.34926e-011 0.707107   
     length 0.669581   
     axis -90 -45 5.4397e-014   XYZ
    dof rx rz
    limits (-45.0 45.0)
           (-45.0 45.0)
  end
:hierarchy
  begin
    root lhipjoint rhipjoint lowerback
    lhipjoint lfemur
    lfemur ltibia
    ltibia lfoot
    lfoot ltoes
    rhipjoint rfemur
    rfemur rtibia
    rtibia rfoot
    rfoot rtoes
    lowerback upperback
    upperback thorax
    thorax lowerneck lclavicle rclavicle
    lowerneck upperneck
    upperneck head
    lclavicle lhumerus
    lhumerus lradius
    lradius lwrist
    lwrist lhand lthumb
    lhand lfingers
    rclavicle rhumerus
    rhumerus rradius
    rradius rwrist
    rwrist rhand rthumb
    rhand rfingers
  end

#!OML:ASF H:\SkateBoarding\Project 1\Capture day 1\Session 1\Skater.ASF
:FULLY-SPECIFIED
:DEGREES
51
root 21.9077 16.2746 -6.70665 11.8538 21.9776 4.01316
lowerback 14.6206 0.952876 -6.90605
upperback 0.481995 -0.0243709 -1.89284
thorax -7.71234 0.210807 1.88386
lowerneck -21.7517 -3.86312 -0.356563
upperneck 30.8131 -5.35198 -0.116355
head 14.1959 -2.30956 -0.955975
rclavicle -8.94531e-016 2.78299e-014
rhumerus -27.697 22.972 -73.0123
rradius 62.7764
rwrist -0.671022
rhand -44.144 18.7197
rfingers 7.12502
rthumb -16.9598 -10.5599
lclavicle -8.94531e-016 2.78299e-014
lhumerus -12.2481 -9.24191 70.3781
lradius 57.0018
lwrist 31.1582
lhand -23.9633 10.85
lfingers 7.12502
lthumb 2.51278 40.8149
rfemur -67.5251 1.82728 5.95681
rtibia 81.2286
rfoot -13.7971 20.3759
rtoes -14.4381
lfemur -3.20838 -15.068 -4.22905
ltibia 31.8264
lfoot -14.4928 -25.1167
ltoes 15.6736
52
root 21.8645 16.2499 -6.31403 11.8532 22.0249 3.92276
lowerback 14.6335 0.733057 -6.59526
upperback 0.333387 -0.269071 -1.83423
thorax -7.86023 0.0889734 1.82246
lowerneck -21.8947 -3.72192 -0.345048
upperneck 31.1137 -5.03741 -0.455023
head 14.3469 -2.21683 -1.04603
rclavicle -6.4605e-015 1.31198e-014
rhumerus -27.8013 24.0512 -72.6028
rradius 63.3285
rwrist -0.709321
rhand -44.1141 18.5896
rfingers 7.12502
rthumb -16.931 -10.6924
lclavicle -6.4605e-015 1.31198e-014
lhumerus -11.5257 -9.88409 69.8942
lradius 58.5546
lwrist 31.0839
lhand -23.6681 10.581
lfingers 7.12502
lthumb 2.79791 40.5424
rfemur -67.8324 1.48496 6.13117
rtibia 81.3572
rfoot -13.4639 20.5592
rtoes -14.1311
lfemur -0.38839 -15.7045 -3.95995
ltibia 28.6523
lfoot -14.8182 -24.1246
ltoes 15.8222
53
root 21.8158 16.2361 -5.91131 11.8795 22.1395 3.78048
lowerback 14.5766 0.497342 -6.23776
upperback 0.173039 -0.52041 -1.76422
thorax -7.9831 -0.0387484 1.74864
lowerneck -22.0336 -3.57901 -0.323736
upperneck 31.3869 -4.72268 -0.788581
head 14.4877 -2.12373 -1.13573
rclavicle -5.66536e-015 -3.18055e-015
rhumerus -27.8944 25.088 -72.2293
rradius 63.8098
rwrist -0.833623
rhand -44.1104 18.3888
rfingers 7.12502
rthumb -16.9275 -10.8935
lclavicle -5.66536e-015 -3.18055e-015
lhumerus -10.9023 -10.5454 69.3952
lradius 60.1183
lwrist 30.9028
lhand -23.4624 10.2755
lfingers 7.12502
lthumb 2.99654 40.2342
rfemur -68.0509 1.12061 6.42022
rtibia 81.404
rfoot -13.204 20.7622
rtoes -13.8304
lfemur 2.67279 -16.4482 -3.63675
ltibia 24.8224
lfoot -15.2003 -22.6519
ltoes 16.0749
54
root 21.7692 16.1641 -5.51273 11.9297 22.3204 3.58887
lowerback 14.4411 0.249262 -5.85815
upperback 0.00771362 -0.77714 -1.6766
thorax -8.06875 -0.171211 1.68192
lowerneck -22.1579 -3.43551 -0.30078
upperneck 31.616 -4.41153 -1.10322
head 14.6088 -2.03096 -1.21803
rclavicle 3.38928e-014 -4.73108e-014
rhumerus -27.9685 26.0721 -71.884
rradius 64.2161
rwrist -1.01521
rhand -44.1064 18.1102
rfingers 7.12502
rthumb -16.9236 -11.1724
lclavicle 3.38928e-014 -4.73108e-014
lhumerus -10.3697 -11.1999 68.89
lradius 61.6824
lwrist 30.647
lhand -23.332 9.91157
lfingers 7.12502
lthumb 3.12246 39.8685
rfemur -68.6214 0.607065 6.75351
rtibia 81.6923
rfoot -12.824 20.9674
rtoes -13.5427
lfemur 6.06305 -17.2986 -3.21548
ltibia 20.2322
lfoot -15.6113 -20.6603
ltoes 16.5156
55
root 21.7087 16.1681 -5.09247 11.9995 22.5623 3.36235
lowerback 14.2228 -0.00496041 -5.48447
upperback -0.155083 -1.03615 -1.57179
thorax -8.10635 -0.306133 1.63603
lowerneck -22.2595 -3.29664 -0.285993
upperneck 31.7946 -4.1146 -1.38189
head 14.7057 -1.94161 -1.28572
rclavicle -8.74653e-015 1.47101e-014
rhumerus -28.0221 26.9866 -71.5597
rradius 64.5499
rwrist -1.22636
rhand -44.0696 17.7451
rfingers 7.12502
rthumb -16.8882 -11.5405
lclavicle -8.74653e-015 1.47101e-014
lhumerus -9.91644 -11.852 68.3991
lradius 63.2314
lwrist 30.2844
lhand -23.3362 9.52036
lfingers 7.12502
lthumb 3.11847 39.4773
rfemur -68.6875 0.214862 7.2409
rtibia 81.6173
rfoot -12.7419 21.1917
rtoes -13.3089
lfemur 10.1039 -18.2548 -2.79967
ltibia 14.1203
lfoot -16.1972 -17.6408
ltoes 17.206
